<mxfile host="app.diagrams.net" modified="2024-02-03T07:19:26.921Z" agent="Mozilla/5.0 (Windows NT 10.0; Win64; x64) AppleWebKit/537.36 (KHTML, like Gecko) Chrome/121.0.0.0 Safari/537.36" version="23.1.1" etag="Uulg7x68a3WAt2CxhWLS" type="github">
  <diagram name="Page-1" id="b338KQWVE3sJdQ4WAYzk">
    <mxGraphModel>
      <root>
        <mxCell id="0" />
        <mxCell id="1" parent="0" />
      </root>
    </mxGraphModel>
  </diagram>
</mxfile>
